<?xml version="1.0" encoding="UTF-8"?>
<svg width="24px" height="18px" viewBox="0 0 24 18" version="1.1" xmlns="http://www.w3.org/2000/svg" xmlns:xlink="http://www.w3.org/1999/xlink">
    <title>add-person-light</title>
    <g id="Page-1" stroke="none" stroke-width="1" fill="none" fill-rule="evenodd">
        <path d="M10.4999924,11.3502819 C15.7467051,11.3502819 19.9999924,13.2027767 19.9999924,15.4879448 C19.9999924,16.1654293 19.5425887,17.3502319 18.9658127,17.3503319 L18.9658127,17.3503319 L2.01437746,17.3503319 C1.55140973,17.3503319 0.999992409,16.1578269 0.999992409,15.4879448 C0.999992409,13.2027767 5.25329488,11.3502819 10.4999924,11.3502819 Z M10.5,1 C12.1568542,1 13.5,2.56700338 13.5,4.5 C13.5,6.43299662 12.1568542,8 10.5,8 C8.84314575,8 7.5,6.43299662 7.5,4.5 C7.5,2.56700338 8.84314575,1 10.5,1 Z M20.5,2.5 L20.5,8.5 M23.5,5.5 L17.5,5.5" id="add-person-light" stroke="#E5F1EE"></path>
    </g>
</svg>