<?xml version="1.0" encoding="UTF-8"?>
<svg width="18px" height="16px" viewBox="0 0 18 16" version="1.1" xmlns="http://www.w3.org/2000/svg" xmlns:xlink="http://www.w3.org/1999/xlink">
    <title>chat-bubble</title>
    <g id="Page-1" stroke="none" stroke-width="1" fill="none" fill-rule="evenodd">
        <g id="chat-bubble" transform="translate(0.000000, 0.056038)" fill="#3F425F">
            <path d="M16,0 C17.1045695,-4.2495073e-16 18,0.8954305 18,2 L18,10.9719458 C18,12.0765153 17.1045695,12.9719458 16,12.9719458 L10.9342892,12.9719458 L6.00139323,15.5215771 L6.00139323,12.9719458 L2,12.9719458 C0.8954305,12.9719458 -2.07181889e-14,12.0765153 0,10.9719458 L0,2 C-1.3527075e-16,0.8954305 0.8954305,-6.85272294e-16 2,0 L16,0 Z M16,1 L2,1 C1.44771525,1 1,1.44771525 1,2 L1,2 L1,10.9460589 C1,11.4983436 1.44771525,11.9460589 2,11.9460589 L2,11.9460589 L7.04295454,11.9460589 L7.04295454,13.8452735 L10.2582586,12.0705671 C10.4062264,11.9888953 10.5724804,11.9460589 10.7414915,11.9460589 L10.7414915,11.9460589 L16,11.9460589 C16.5522847,11.9460589 17,11.4983436 17,10.9460589 L17,10.9460589 L17,2 C17,1.44771525 16.5522847,1 16,1 L16,1 Z" id="Combined-Shape"></path>
        </g>
    </g>
</svg>