<?xml version="1.0" encoding="UTF-8"?>
<svg width="18px" height="15px" viewBox="0 0 18 15" version="1.1" xmlns="http://www.w3.org/2000/svg" xmlns:xlink="http://www.w3.org/1999/xlink">
    <title>inbox-file</title>
    <g id="Page-1" stroke="none" stroke-width="1" fill="none" fill-rule="evenodd">
        <g id="inbox-file" fill="#0AA99C" fill-rule="nonzero">
            <path d="M17.79375,7.40131579 C17.8125,7.34210526 17.8125,7.26315789 17.79375,7.20394737 L16.25625,0.888157895 C16.125,0.375 15.675,0 15.16875,0 L2.83125,0 C2.30625,0 1.875,0.355263158 1.74375,0.888157895 L0.20625,7.20394737 C0.1875,7.26315789 0.1875,7.34210526 0.20625,7.40131579 C0.075,7.67763158 0,7.97368421 0,8.28947368 L0,13.0263158 C0,14.1118421 0.84375,15 1.875,15 L16.125,15 C17.15625,15 18,14.1118421 18,13.0263158 L18,8.28947368 C18,7.97368421 17.925,7.67763158 17.79375,7.40131579 Z M2.97181818,1.40430622 C3.02363636,1.22248804 3.14454545,1.13157895 3.31727273,1.13157895 L14.6827273,1.13157895 C14.8381818,1.13157895 14.9763636,1.24066986 15.0281818,1.40430622 L16.2372727,6.36794258 C16.03,6.27703349 15.8054545,6.22248804 15.5636364,6.22248804 L12.3854545,6.22248804 C11.8845455,6.22248804 11.47,6.5861244 11.3663636,7.09521531 C11.1418182,8.27703349 10.14,9.13157895 9,9.13157895 C7.86,9.13157895 6.85818182,8.27703349 6.63363636,7.09521531 C6.53,6.5861244 6.11545455,6.22248804 5.61454545,6.22248804 L2.43636364,6.22248804 C2.19454545,6.22248804 1.97,6.27703349 1.76272727,6.36794258 M17.25,13.0263158 C17.25,13.6776316 16.74375,14.2105263 16.125,14.2105263 L1.875,14.2105263 C1.25625,14.2105263 0.75,13.6776316 0.75,13.0263158 L0.75,8.28947368 C0.75,7.63815789 1.25625,7.10526316 1.875,7.10526316 L5.325,7.10526316 C5.5125,7.10526316 5.64375,7.22368421 5.68125,7.42105263 C6.01875,9.05921053 7.40625,10.2631579 9,10.2631579 C10.59375,10.2631579 11.98125,9.05921053 12.31875,7.42105263 C12.35625,7.22368421 12.50625,7.10526316 12.675,7.10526316 L16.125,7.10526316 C16.74375,7.10526316 17.25,7.63815789 17.25,8.28947368 L17.25,13.0263158 Z M17.25,13.0263158 C17.25,13.6776316 16.74375,14.2105263 16.125,14.2105263 L1.875,14.2105263 C1.25625,14.2105263 0.75,13.6776316 0.75,13.0263158 L0.75,8.28947368 C0.75,7.63815789 1.25625,7.10526316 1.875,7.10526316 L5.325,7.10526316 C5.5125,7.10526316 5.64375,7.22368421 5.68125,7.42105263 C6.01875,9.05921053 7.40625,10.2631579 9,10.2631579 C10.59375,10.2631579 11.98125,9.05921053 12.31875,7.42105263 C12.35625,7.22368421 12.50625,7.10526316 12.675,7.10526316 L16.125,7.10526316 C16.74375,7.10526316 17.25,7.63815789 17.25,8.28947368 L17.25,13.0263158 Z" id="Shape"></path>
        </g>
    </g>
</svg>