<?xml version="1.0" encoding="UTF-8"?>
<svg width="30px" height="28px" viewBox="0 0 30 28" version="1.1" xmlns="http://www.w3.org/2000/svg" xmlns:xlink="http://www.w3.org/1999/xlink">
    <title>inbox-file-big</title>
    <g id="Page-1" stroke="none" stroke-width="1" fill="none" fill-rule="evenodd">
        <g id="inbox-file-big" fill="#13F1DF" fill-rule="nonzero">
            <path d="M29.65625,13.4473684 L27.09375,1.65789474 C26.875,0.7 26.125,0 25.28125,0 L4.71875,0 C3.84375,0 3.125,0.663157895 2.90625,1.65789474 L0.34375,13.4473684 C0.3125,13.5578947 0,14.8842105 0,15.4736842 L0,24.3157895 C0,26.3421053 1.40625,28 3.125,28 L26.875,28 C28.59375,28 30,26.3421053 30,24.3157895 L30,15.4736842 C30,14.8842105 29.6875,13.5578947 29.65625,13.4473684 Z M4.9530303,2.42527442 C5.03939394,2.05094287 5.24090909,1.86377709 5.52878788,1.86377709 L24.4712121,1.86377709 C24.730303,1.86377709 24.9606061,2.08837602 25.0469697,2.42527442 L27.0621212,12.6445258 C26.7166667,12.45736 26.3424242,12.3450605 25.9393939,12.3450605 L20.6424242,12.3450605 C19.8075758,12.3450605 19.1166667,13.0937236 18.9439394,14.141852 C18.569697,16.575007 16.9,18.3343653 15,18.3343653 C13.1,18.3343653 11.430303,16.575007 11.0560606,14.141852 C10.8833333,13.0937236 10.1924242,12.3450605 9.35757576,12.3450605 L4.06060606,12.3450605 C3.65757576,12.3450605 3.28333333,12.45736 2.93787879,12.6445258 M28.75,24.749226 C28.75,25.8219814 27.90625,26.6996904 26.875,26.6996904 L3.125,26.6996904 C2.09375,26.6996904 1.25,25.8219814 1.25,24.749226 L1.25,16.9473684 C1.25,15.874613 2.09375,14.996904 3.125,14.996904 L8.875,14.996904 C9.1875,14.996904 9.40625,15.1919505 9.46875,15.5170279 C10.03125,18.2151703 12.34375,20.1981424 15,20.1981424 C17.65625,20.1981424 19.96875,18.2151703 20.53125,15.5170279 C20.59375,15.1919505 20.84375,14.996904 21.125,14.996904 L26.875,14.996904 C27.90625,14.996904 28.75,15.874613 28.75,16.9473684 L28.75,24.749226 Z M28.75,24.749226 C28.75,25.8219814 27.90625,26.6996904 26.875,26.6996904 L3.125,26.6996904 C2.09375,26.6996904 1.25,25.8219814 1.25,24.749226 L1.25,16.9473684 C1.25,15.874613 2.09375,14.996904 3.125,14.996904 L8.875,14.996904 C9.1875,14.996904 9.40625,15.1919505 9.46875,15.5170279 C10.03125,18.2151703 12.34375,20.1981424 15,20.1981424 C17.65625,20.1981424 19.96875,18.2151703 20.53125,15.5170279 C20.59375,15.1919505 20.84375,14.996904 21.125,14.996904 L26.875,14.996904 C27.90625,14.996904 28.75,15.874613 28.75,16.9473684 L28.75,24.749226 Z" id="Shape"></path>
        </g>
    </g>
</svg>