<?xml version="1.0" encoding="UTF-8"?>
<svg width="18px" height="17px" viewBox="0 0 18 17" version="1.1" xmlns="http://www.w3.org/2000/svg" xmlns:xlink="http://www.w3.org/1999/xlink">
    <title>inbox-file</title>
    <g id="Page-1" stroke="none" stroke-width="1" fill="none" fill-rule="evenodd">
        <g id="inbox-file" fill="#0AA99C" fill-rule="nonzero">
            <path d="M17.79375,8.38815789 C17.8125,8.32105263 17.8125,8.23157895 17.79375,8.16447368 L16.25625,1.00657895 C16.125,0.425 15.675,0 15.16875,0 L2.83125,0 C2.30625,0 1.875,0.402631579 1.74375,1.00657895 L0.20625,8.16447368 C0.1875,8.23157895 0.1875,8.32105263 0.20625,8.38815789 C0.075,8.70131579 0,9.03684211 0,9.39473684 L0,14.7631579 C0,15.9934211 0.84375,17 1.875,17 L16.125,17 C17.15625,17 18,15.9934211 18,14.7631579 L18,9.39473684 C18,9.03684211 17.925,8.70131579 17.79375,8.38815789 Z M2.97181818,1.47248804 C3.02363636,1.24521531 3.14454545,1.13157895 3.31727273,1.13157895 L14.6827273,1.13157895 C14.8381818,1.13157895 14.9763636,1.26794258 15.0281818,1.47248804 L16.2372727,7.67703349 C16.03,7.56339713 15.8054545,7.49521531 15.5636364,7.49521531 L12.3854545,7.49521531 C11.8845455,7.49521531 11.47,7.94976077 11.3663636,8.5861244 C11.1418182,10.0633971 10.14,11.1315789 9,11.1315789 C7.86,11.1315789 6.85818182,10.0633971 6.63363636,8.5861244 C6.53,7.94976077 6.11545455,7.49521531 5.61454545,7.49521531 L2.43636364,7.49521531 C2.19454545,7.49521531 1.97,7.56339713 1.76272727,7.67703349 M17.25,15.0263158 C17.25,15.6776316 16.74375,16.2105263 16.125,16.2105263 L1.875,16.2105263 C1.25625,16.2105263 0.75,15.6776316 0.75,15.0263158 L0.75,10.2894737 C0.75,9.63815789 1.25625,9.10526316 1.875,9.10526316 L5.325,9.10526316 C5.5125,9.10526316 5.64375,9.22368421 5.68125,9.42105263 C6.01875,11.0592105 7.40625,12.2631579 9,12.2631579 C10.59375,12.2631579 11.98125,11.0592105 12.31875,9.42105263 C12.35625,9.22368421 12.50625,9.10526316 12.675,9.10526316 L16.125,9.10526316 C16.74375,9.10526316 17.25,9.63815789 17.25,10.2894737 L17.25,15.0263158 Z M17.25,15.0263158 C17.25,15.6776316 16.74375,16.2105263 16.125,16.2105263 L1.875,16.2105263 C1.25625,16.2105263 0.75,15.6776316 0.75,15.0263158 L0.75,10.2894737 C0.75,9.63815789 1.25625,9.10526316 1.875,9.10526316 L5.325,9.10526316 C5.5125,9.10526316 5.64375,9.22368421 5.68125,9.42105263 C6.01875,11.0592105 7.40625,12.2631579 9,12.2631579 C10.59375,12.2631579 11.98125,11.0592105 12.31875,9.42105263 C12.35625,9.22368421 12.50625,9.10526316 12.675,9.10526316 L16.125,9.10526316 C16.74375,9.10526316 17.25,9.63815789 17.25,10.2894737 L17.25,15.0263158 Z" id="Shape"></path>
        </g>
    </g>
</svg>