<?xml version="1.0" encoding="UTF-8"?>
<svg width="18px" height="18px" viewBox="0 0 18 18" version="1.1" xmlns="http://www.w3.org/2000/svg" xmlns:xlink="http://www.w3.org/1999/xlink">
    <title>next-seven</title>
    <g id="Page-1" stroke="none" stroke-width="1" fill="none" fill-rule="evenodd">
        <g id="next-seven" transform="translate(0.000000, 1.000000)">
            <path d="M3.00983355,2 C3.00983355,3.60714286 3.72308943,4.04723792 4.5043902,4.04723792 C5.28569098,4.04723792 6.00262678,3.60714286 6.00262678,2 L12.0083749,2 L12.0083749,2 C12.0083749,3.57616845 12.9617553,4.04723792 13.4895468,4.04723792 C14.0173382,4.04723792 15.0177907,3.62791017 15.0177907,2 L16,2 L16,2 C17.1045695,2 18,2.8954305 18,4 L18,15 C18,16.1045695 17.1045695,17 16,17 L2,17 C0.8954305,17 1.3527075e-16,16.1045695 0,15 L0,4 C-1.3527075e-16,2.8954305 0.8954305,2 2,2 L3.00983355,2 L3.00983355,2 Z M16.75,5.25 L1.25,5.25 L1.25,14.75 C1.25,15.3022847 1.69771525,15.75 2.25,15.75 L2.25,15.75 L15.75,15.75 C16.3022847,15.75 16.75,15.3022847 16.75,14.75 L16.75,14.75 L16.75,5.25 Z" id="Combined-Shape" fill="#6706A5"></path>
            <line x1="13.5" y1="2.5" x2="13.5" y2="0.5" id="Line-right-top" stroke="#6706A5" stroke-width="1.5" stroke-linecap="round"></line>
            <line x1="4.5" y1="2.5" x2="4.5" y2="0.5" id="Line-left-top" stroke="#6706A5" stroke-width="1.5" stroke-linecap="round"></line>
            <path d="M4,9 C5,9 5,9 5,8 C5,7 5,7 4,7 C3,7 3,7 3,8 C3,9 3,9 4,9 Z" id="Oval" fill="#6706A5"></path>
            <path d="M4,14 C5,14 5,14 5,13 C5,12 5,12 4,12 C3,12 3,12 3,13 C3,14 3,14 4,14 Z" id="Oval-Copy-3" fill="#6706A5"></path>
            <path d="M9,9 C10,9 10,9 10,8 C10,7 10,7 9,7 C8,7 8,7 8,8 C8,9 8,9 9,9 Z" id="Oval-Copy" fill="#6706A5"></path>
            <path d="M9,14 C10,14 10,14 10,13 C10,12 10,12 9,12 C8,12 8,12 8,13 C8,14 8,14 9,14 Z" id="Oval-Copy-4" fill="#6706A5"></path>
            <path d="M14,9 C15,9 15,9 15,8 C15,7 15,7 14,7 C13,7 13,7 13,8 C13,9 13,9 14,9 Z" id="Oval-Copy-2" fill="#6706A5"></path>
            <path d="M14,14 C15,14 15,14 15,13 C15,12 15,12 14,12 C13,12 13,12 13,13 C13,14 13,14 14,14 Z" id="Oval-Copy-5" fill="#6706A5"></path>
        </g>
    </g>
</svg>