<?xml version="1.0" encoding="UTF-8"?>
<svg width="26px" height="28px" viewBox="0 0 26 28" version="1.1" xmlns="http://www.w3.org/2000/svg" xmlns:xlink="http://www.w3.org/1999/xlink">
    <title>Project</title>
    <g id="Page-1" stroke="none" stroke-width="1" fill="none" fill-rule="evenodd">
        <g id="Project" transform="translate(-0.000000, -0.000000)" fill="#13F1DF">
            <g id="inbox-file-big-copy" fill-rule="nonzero">
                <path d="M24,0 C25.1045695,-1.09108455e-15 26,0.8954305 26,2 L26,2 L26,26 C26,27.1045695 25.1045695,28 24,28 L24,28 L2,28 C0.8954305,28 1.3527075e-16,27.1045695 0,26 L0,26 L0,2 C-1.3527075e-16,0.8954305 0.8954305,2.02906125e-16 2,0 L2,0 Z M23.09375,2 L3.09375,2 C2.54146525,2 2.09375,2.44771525 2.09375,3 L2.09375,25 C2.09375,25.5522847 2.54146525,26 3.09375,26 L23.09375,26 C23.6460347,26 24.09375,25.5522847 24.09375,25 L24.09375,3 C24.09375,2.44771525 23.6460347,2 23.09375,2 Z" id="Combined-Shape"></path>
            </g>
            <g id="Group-Copy-2" transform="translate(5.000000, 3.500000)">
                <path d="M15.0835308,11.5514379 L15.3359854,12.561256 L4.85567815,13.0169215 L4.60322362,12.0071034 L15.0835308,11.5514379 Z" id="Path-6" stroke="#13F1DF"></path>
                <path d="M15.0835308,16.5514379 L15.3359854,17.561256 L4.85567815,18.0169215 L4.60322362,17.0071034 L15.0835308,16.5514379 Z" id="Path-6" stroke="#13F1DF"></path>
                <path d="M1.63619656,11.6063391 L1.89366094,12.6361966 L0.863803438,12.8936609 L0.606339063,11.8638034 L1.63619656,11.6063391 Z" id="Path-6" stroke="#13F1DF"></path>
                <path d="M1.63619656,16.6063391 L1.89366094,17.6361966 L0.863803438,17.8936609 L0.606339063,16.8638034 L1.63619656,16.6063391 Z" id="Path-6" stroke="#13F1DF"></path>
                <path d="M2.98087306,4.66202972 L3.94151321,3.78422242 C4.1298804,3.61209752 4.4176372,3.60942664 4.60916689,3.77802545 L6.88013798,5.77710464 C6.90086553,5.79535058 6.93245979,5.79333885 6.95070574,5.77261129 C6.95148526,5.77172575 6.95223319,5.7708129 6.95294814,5.76987445 L11.0916947,0.337262736 C11.2399272,0.142689398 11.5071696,0.0839241456 11.7233526,0.198364331 L12.9154514,0.82942218 C13.1595072,0.958617287 13.2526202,1.26119694 13.1234251,1.50525274 C13.110499,1.52967078 13.0955712,1.55297544 13.0787952,1.57492737 L7.73668709,8.56520867 C7.48517407,8.89431971 7.01448527,8.95722533 6.68537423,8.70571232 C6.67019055,8.69410865 6.6554559,8.68192891 6.64120256,8.66919976 L2.98510377,5.40406877 C2.77913996,5.22012986 2.76128525,4.90405126 2.94522416,4.69808745 C2.95648965,4.68547303 2.96838791,4.67343831 2.98087306,4.66202972 Z" id="Path-2-Copy"></path>
            </g>
        </g>
    </g>
</svg>