<?xml version="1.0" encoding="UTF-8"?>
<svg width="18px" height="18px" viewBox="0 0 18 18" version="1.1" xmlns="http://www.w3.org/2000/svg" xmlns:xlink="http://www.w3.org/1999/xlink">
    <title>today-logo</title>
    <g id="Page-1" stroke="none" stroke-width="1" fill="none" fill-rule="evenodd">
        <g id="today-logo" transform="translate(0.000000, 1.000000)">
            <path d="M3.00983355,2 C3.00983355,3.60714286 3.72308943,4.04723792 4.5043902,4.04723792 C5.28569098,4.04723792 6.00262678,3.60714286 6.00262678,2 L12.0083749,2 L12.0083749,2 C12.0083749,3.57616845 12.9617553,4.04723792 13.4895468,4.04723792 C14.0173382,4.04723792 15.0177907,3.62791017 15.0177907,2 L16,2 L16,2 C17.1045695,2 18,2.8954305 18,4 L18,15 C18,16.1045695 17.1045695,17 16,17 L2,17 C0.8954305,17 1.3527075e-16,16.1045695 0,15 L0,4 C-1.3527075e-16,2.8954305 0.8954305,2 2,2 L3.00983355,2 L3.00983355,2 Z M16.75,5.25 L1.25,5.25 L1.25,14.75 C1.25,15.3022847 1.69771525,15.75 2.25,15.75 L2.25,15.75 L15.75,15.75 C16.3022847,15.75 16.75,15.3022847 16.75,14.75 L16.75,14.75 L16.75,5.25 Z" id="Combined-Shape" fill="#A57B06"></path>
            <line x1="13.5" y1="2.5" x2="13.5" y2="0.5" id="Line-right-top" stroke="#A57B06" stroke-width="1.5" stroke-linecap="round"></line>
            <line x1="4.5" y1="2.5" x2="4.5" y2="0.5" id="Line-left-top" stroke="#A57B06" stroke-width="1.5" stroke-linecap="round"></line>
            <path d="M5.50486634,10.7054652 L5.95542226,10.2937592 C6.14378944,10.1216343 6.43154625,10.1189635 6.62307594,10.2875623 L8.09975138,11.5874428 C8.12047893,11.6056888 8.1520732,11.603677 8.17031915,11.5829495 C8.17108144,11.5820835 8.17181353,11.5811914 8.17251411,11.5802748 L11.3994527,7.35823358 C11.5550291,7.15468151 11.839292,7.10165879 12.0577895,7.23543598 L12.6322751,7.5871704 C12.8677819,7.73136175 12.9418077,8.03916794 12.7976164,8.27467476 C12.7880755,8.29025778 12.7776876,8.3053061 12.7664995,8.31975199 L8.8597851,13.3640222 C8.60615487,13.6915043 8.13507018,13.7513732 7.80758799,13.497743 C7.79375456,13.4870292 7.78030028,13.4758346 7.76724986,13.4641797 L5.50909705,11.4475042 C5.30313324,11.2635653 5.28527853,10.9474867 5.46921744,10.7415229 C5.48048293,10.7289085 5.49238119,10.7168738 5.50486634,10.7054652 Z" id="Path-2" fill="#A57B06"></path>
        </g>
    </g>
</svg>