<?xml version="1.0" encoding="UTF-8"?>
<svg width="30px" height="28px" viewBox="0 0 30 28" version="1.1" xmlns="http://www.w3.org/2000/svg" xmlns:xlink="http://www.w3.org/1999/xlink">
    <title>today-logo-big</title>
    <g id="Page-1" stroke="none" stroke-width="1" fill="none" fill-rule="evenodd">
        <g id="today-logo-big" transform="translate(0.000000, 1.000000)">
            <path d="M5.01638926,3 C5.01638926,5.57142857 6.20514905,6.27558066 7.50731701,6.27558066 C8.80948496,6.27558066 10.004378,5.57142857 10.004378,3 L20.0139582,3 L20.0139582,3 C20.0139582,5.52186953 21.6029256,6.27558066 22.4825779,6.27558066 C23.3622303,6.27558066 25.0296511,5.60465628 25.0296511,3 L28,3 L28,3 C29.1045695,3 30,3.8954305 30,5 L30,25 C30,26.1045695 29.1045695,27 28,27 L2,27 C0.8954305,27 -5.30863065e-16,26.1045695 0,25 L0,5 C-5.7935996e-16,3.8954305 0.8954305,3 2,3 L5.01638926,3 L5.01638926,3 Z M28,8 L2,8 L2,24 C2,24.5522847 2.44771525,25 3,25 L3,25 L27,25 C27.5522847,25 28,24.5522847 28,24 L28,24 L28,8 Z" id="Combined-Shape" fill="#F2B508"></path>
            <line x1="22.5" y1="4" x2="22.5" y2="0.5" id="Line-right-top" stroke="#F2B508" stroke-width="2.5" stroke-linecap="round"></line>
            <line x1="7.5" y1="4" x2="7.5" y2="0.5" id="Line-left-top" stroke="#F2B508" stroke-width="2.5" stroke-linecap="round"></line>
            <path d="M8.8456483,17.1295836 L10.1439242,15.9414856 C10.3323724,15.76903 10.6205114,15.7663551 10.8121287,15.9352825 L13.6076916,18.3998146 C13.6284057,18.4180759 13.6600014,18.4160875 13.6782627,18.3953734 C13.6790417,18.3944898 13.6797892,18.3935789 13.6805039,18.3926425 L19.4220592,10.8693464 C19.5776498,10.6654724 19.8622629,10.6123763 20.0808969,10.7464366 L21.677159,11.7252203 C21.9125701,11.8695679 21.9863917,12.1774231 21.8420441,12.4128343 C21.8326136,12.4282141 21.8223576,12.4430723 21.8113212,12.4573436 L14.5297662,21.8731525 C14.2763721,22.2008175 13.8053307,22.2610259 13.4776658,22.0076318 C13.4635356,21.9967045 13.4498003,21.9852759 13.4364862,21.9733678 L8.84987681,17.8711258 C8.64404918,17.6870345 8.62642838,17.3709428 8.81051965,17.1651152 C8.82162973,17.1526933 8.83335392,17.1408346 8.8456483,17.1295836 Z" id="Path-2" fill="#F2B508"></path>
        </g>
    </g>
</svg>