<?xml version="1.0" encoding="UTF-8"?>
<svg width="30px" height="28px" viewBox="0 0 30 28" version="1.1" xmlns="http://www.w3.org/2000/svg" xmlns:xlink="http://www.w3.org/1999/xlink">
    <title>today-logo-big</title>
    <g id="Page-1" stroke="none" stroke-width="1" fill="none" fill-rule="evenodd">
        <g id="today-logo-big" transform="translate(0.000000, 1.000000)">
            <path d="M5.01638926,3 C5.01638926,5.57142857 6.20514905,6.27558066 7.50731701,6.27558066 C8.80948496,6.27558066 10.004378,5.57142857 10.004378,3 L20.0139582,3 L20.0139582,3 C20.0139582,5.52186953 21.6029256,6.27558066 22.4825779,6.27558066 C23.3622303,6.27558066 25.0296511,5.60465628 25.0296511,3 L28,3 L28,3 C29.1045695,3 30,3.8954305 30,5 L30,25 C30,26.1045695 29.1045695,27 28,27 L2,27 C0.8954305,27 -5.30863065e-16,26.1045695 0,25 L0,5 C-5.7935996e-16,3.8954305 0.8954305,3 2,3 L5.01638926,3 L5.01638926,3 Z M28,8 L2,8 L2,24 C2,24.5522847 2.44771525,25 3,25 L3,25 L27,25 C27.5522847,25 28,24.5522847 28,24 L28,24 L28,8 Z" id="Combined-Shape" fill="#F2B508"></path>
            <line x1="22.5" y1="4" x2="22.5" y2="0.5" id="Line-right-top" stroke="#F2B508" stroke-width="2.5" stroke-linecap="round"></line>
            <line x1="7.5" y1="4" x2="7.5" y2="0.5" id="Line-left-top" stroke="#F2B508" stroke-width="2.5" stroke-linecap="round"></line>
            <path d="M9.40859278,16.0362231 L10.539261,15.0030487 C10.7276282,14.8309238 11.015385,14.8282529 11.2069147,14.9968517 L13.7427351,17.2290712 C13.7634627,17.2473171 13.7950569,17.2453054 13.8133029,17.2245778 C13.8140652,17.2237119 13.8147973,17.2228198 13.8154979,17.2219031 L19.0614533,10.3582336 C19.2170297,10.1546815 19.5012926,10.1016588 19.7197901,10.235436 L21.1142437,11.0892038 C21.3497506,11.2333952 21.4237764,11.5412014 21.279585,11.7767082 C21.2700442,11.7922912 21.2596563,11.8073395 21.2484682,11.8217854 L14.6326292,20.3640222 C14.378999,20.6915043 13.9079143,20.7513732 13.5804321,20.497743 C13.5665986,20.4870292 13.5531444,20.4758346 13.540094,20.4641797 L9.41282349,16.7782622 C9.20685968,16.5943232 9.18900497,16.2782446 9.37294388,16.0722808 C9.38420937,16.0596664 9.39610763,16.0476317 9.40859278,16.0362231 Z" id="Path-2" fill="#F2B508"></path>
        </g>
    </g>
</svg>