<?xml version="1.0" encoding="UTF-8"?>
<svg width="22px" height="6px" viewBox="0 0 22 6" version="1.1" xmlns="http://www.w3.org/2000/svg" xmlns:xlink="http://www.w3.org/1999/xlink">
    <title>3-dots-light-fill</title>
    <g id="Page-1" stroke="none" stroke-width="1" fill="none" fill-rule="evenodd">
        <path d="M3,1 C4.1045695,1 5,1.8954305 5,3 C5,4.1045695 4.1045695,5 3,5 C1.8954305,5 1,4.1045695 1,3 C1,1.8954305 1.8954305,1 3,1 Z M11,1 C12.1045695,1 13,1.8954305 13,3 C13,4.1045695 12.1045695,5 11,5 C9.8954305,5 9,4.1045695 9,3 C9,1.8954305 9.8954305,1 11,1 Z M19,1 C20.1045695,1 21,1.8954305 21,3 C21,4.1045695 20.1045695,5 19,5 C17.8954305,5 17,4.1045695 17,3 C17,1.8954305 17.8954305,1 19,1 Z" id="3-dots-light-fill" stroke="#E5F1EE" fill="#E5F1EE"></path>
    </g>
</svg>