<?xml version="1.0" encoding="UTF-8"?>
<svg width="14px" height="18px" viewBox="0 0 14 18" version="1.1" xmlns="http://www.w3.org/2000/svg" xmlns:xlink="http://www.w3.org/1999/xlink">
    <title>trash-can</title>
    <g id="Page-1" stroke="none" stroke-width="1" fill="none" fill-rule="evenodd">
        <g id="trash-can" transform="translate(0.495972, 1.343872)" stroke="#404040" stroke-width="0.75">
            <line x1="13.0040283" y1="1.98388672" x2="1.76429105e-15" y2="1.98388672" id="Line-4" stroke-linecap="round"></line>
            <path d="M12.0040283,2.63342285 L12.0040283,13.3323975 C12.0040283,14.436967 11.1085978,15.3323975 10.0040283,15.3323975 L3.00402832,15.3323975 C1.89945882,15.3323975 1.00402832,14.436967 1.00402832,13.3323975 L1.00402832,2.63342285 L1.00402832,2.63342285" id="Line-5" stroke-linecap="square"></path>
            <line x1="9.00402832" y1="5.15612793" x2="9.00402832" y2="12.1561279" id="Line-6" stroke-linecap="round"></line>
            <line x1="6.50402832" y1="5.15612793" x2="6.50402832" y2="12.1561279" id="Line-6-Copy-3" stroke-linecap="round"></line>
            <line x1="4.00402832" y1="5.15612793" x2="4.00402832" y2="12.1561279" id="Line-6-Copy" stroke-linecap="round"></line>
            <path d="M9.00402832,1.98388672 L4.06396484,1.98388672 C4.06396484,0.888216339 4.95218118,2.01271384e-16 6.04785156,0 L7.0201416,0 C8.11581198,2.42817826e-16 9.00402832,0.888216339 9.00402832,1.98388672 L9.00402832,1.98388672 L9.00402832,1.98388672 Z" id="Line-7" stroke-linecap="square"></path>
        </g>
    </g>
</svg>