<?xml version="1.0" encoding="UTF-8"?>
<svg width="18px" height="15px" viewBox="0 0 18 15" version="1.1" xmlns="http://www.w3.org/2000/svg" xmlns:xlink="http://www.w3.org/1999/xlink">
    <title>calendar-choose-3</title>
    <g id="Page-1" stroke="none" stroke-width="1" fill="none" fill-rule="evenodd">
        <g id="calendar-choose-3" transform="translate(0.000000, -0.000000)">
            <path d="M16,0 C17.1045695,-2.02906125e-16 18,0.8954305 18,2 L18,13 C18,14.1045695 17.1045695,15 16,15 L2,15 C0.8954305,15 1.3527075e-16,14.1045695 0,13 L0,2 C-1.3527075e-16,0.8954305 0.8954305,-2.41183085e-16 2,0 L16,0 Z M16.0255127,1.00317383 L2.0456543,1.00317383 C1.49336955,1.00317383 1.0456543,1.45088908 1.0456543,2.00317383 L1.0456543,2.00317383 L1.0456543,12.986084 C1.0456543,13.5383687 1.49336955,13.986084 2.0456543,13.986084 L2.0456543,13.986084 L16.0255127,13.986084 C16.5777974,13.986084 17.0255127,13.5383687 17.0255127,12.986084 L17.0255127,12.986084 L17.0255127,2.00317383 C17.0255127,1.45088908 16.5777974,1.00317383 16.0255127,1.00317383 L16.0255127,1.00317383 Z" id="Combined-Shape" fill="#404040"></path>
            <path d="M4.25,8 C5,8 5,8 5,7.25 C5,6.5 5,6.5 4.25,6.5 C3.5,6.5 3.5,6.5 3.5,7.25 C3.5,8 3.5,8 4.25,8 Z" id="Oval" fill="#404040"></path>
            <path d="M4.25,11.5 C5,11.5 5,11.5 5,10.75 C5,10 5,10 4.25,10 C3.5,10 3.5,10 3.5,10.75 C3.5,11.5 3.5,11.5 4.25,11.5 Z" id="Oval-Copy-3" fill="#404040"></path>
            <path d="M8.75,8 C9.5,8 9.5,8 9.5,7.25 C9.5,6.5 9.5,6.5 8.75,6.5 C8,6.5 8,6.5 8,7.25 C8,8 8,8 8.75,8 Z" id="Oval-Copy" fill="#404040"></path>
            <path d="M8.75,11.5 C9.5,11.5 9.5,11.5 9.5,10.75 C9.5,10 9.5,10 8.75,10 C8,10 8,10 8,10.75 C8,11.5 8,11.5 8.75,11.5 Z" id="Oval-Copy-4" fill="#404040"></path>
            <path d="M13.25,8 C14,8 14,8 14,7.25 C14,6.5 14,6.5 13.25,6.5 C12.5,6.5 12.5,6.5 12.5,7.25 C12.5,8 12.5,8 13.25,8 Z" id="Oval-Copy-2" fill="#404040"></path>
            <path d="M13.25,11.5 C14,11.5 14,11.5 14,10.75 C14,10 14,10 13.25,10 C12.5,10 12.5,10 12.5,10.75 C12.5,11.5 12.5,11.5 13.25,11.5 Z" id="Oval-Copy-5" fill="#404040"></path>
            <line x1="16.5" y1="3.5" x2="1.5" y2="3.5" id="Line-3" stroke="#404040" stroke-linecap="square"></line>
        </g>
    </g>
</svg>