<?xml version="1.0" encoding="UTF-8"?>
<svg width="18px" height="16px" viewBox="0 0 18 16" version="1.1" xmlns="http://www.w3.org/2000/svg" xmlns:xlink="http://www.w3.org/1999/xlink">
    <title>chat-bubble-light</title>
    <g id="Page-1" stroke="none" stroke-width="1" fill="none" fill-rule="evenodd">
        <path d="M16,0.056037966 C17.1045695,0.056037966 18,0.951468466 18,2.05603797 L18,11.0279838 C18,12.1325533 17.1045695,13.0279838 16,13.0279838 L10.9342892,13.0279838 L6.00139323,15.5776151 L6.00139323,13.0279838 L2,13.0279838 C0.8954305,13.0279838 -2.14307609e-14,12.1325533 0,11.0279838 L0,2.05603797 C-1.3527075e-16,0.951468466 0.8954305,0.056037966 2,0.056037966 L16,0.056037966 Z M16,1.05603797 L2,1.05603797 C1.44771525,1.05603797 1,1.50375322 1,2.05603797 L1,2.05603797 L1,11.0020968 C1,11.5543816 1.44771525,12.0020968 2,12.0020968 L2,12.0020968 L7.04295454,12.0020968 L7.04295454,13.9013115 L10.2582586,12.126605 C10.4062264,12.0449333 10.5724804,12.0020968 10.7414915,12.0020968 L10.7414915,12.0020968 L16,12.0020968 C16.5522847,12.0020968 17,11.5543816 17,11.0020968 L17,11.0020968 L17,2.05603797 C17,1.50375322 16.5522847,1.05603797 16,1.05603797 L16,1.05603797 Z" id="chat-bubble-light" fill="#E5F1EE"></path>
    </g>
</svg>